<svg xmlns="http://www.w3.org/2000/svg" viewBox="0 0 22 9" width="22" height="9">
	<style>
		tspan { white-space:pre }
		.shp0 { fill: #ffffff } 
	</style>
	<g id="Banner">
		<g id="Slider">
			<g id="Slider text">
				<path id="Shape 1" class="shp0" d="M0.3 5.47L0.29 5.47L17.24 5.47L17.14 8.33C17.09 8.38 17.06 8.46 17.06 8.53C17.06 8.61 17.09 8.68 17.14 8.74L17.32 8.91C17.37 8.97 17.44 9 17.52 9C17.6 9 17.67 8.97 17.72 8.91L21.92 4.7C21.97 4.65 22 4.57 22 4.5C22 4.42 21.97 4.35 21.92 4.29L17.72 0.08C17.67 0.03 17.6 0 17.52 0C17.44 0 17.37 0.03 17.32 0.08L17.14 0.25C17.09 0.31 17.06 0.38 17.06 0.46C17.06 0.53 17.09 0.6 17.14 0.66L17.26 3.52L0.29 3.52C0.13 3.52 0 3.66 0 3.82L0 5.19C0 5.35 0.14 5.47 0.3 5.47Z" />
			</g>
		</g>
	</g>
</svg>