<svg xmlns="http://www.w3.org/2000/svg" viewBox="0 0 6 10" width="6" height="10">
	<style>
		tspan { white-space:pre }
		.shp0 { fill: #243f4d } 
	</style>
	<g id="Content">
		<g id="Sidebar">
			<g id="CATEGORY">
				<path id="Shape 20" class="shp0" d="M0.47 9.54C0.59 9.54 0.71 9.49 0.8 9.4L5.02 5.13C5.03 5.13 5.03 5.12 5.04 5.12C5.08 5.08 5.11 5.03 5.13 4.98C5.13 4.98 5.13 4.98 5.13 4.97C5.16 4.91 5.18 4.83 5.18 4.76C5.18 4.76 5.18 4.76 5.18 4.76C5.18 4.68 5.16 4.61 5.13 4.54C5.13 4.54 5.13 4.54 5.13 4.54C5.13 4.54 5.13 4.54 5.13 4.54C5.11 4.49 5.08 4.44 5.04 4.4C5.03 4.39 5.03 4.39 5.02 4.38L0.8 0.12C0.61 -0.08 0.31 -0.07 0.12 0.14C0.03 0.24 -0.01 0.36 -0.01 0.49C-0.01 0.63 0.04 0.76 0.14 0.86L4 4.76L0.14 8.65C0.04 8.76 -0.01 8.89 -0.01 9.03C-0.01 9.15 0.03 9.28 0.12 9.38C0.22 9.49 0.34 9.54 0.47 9.54Z" />
			</g>
		</g>
	</g>
</svg>