<svg xmlns="http://www.w3.org/2000/svg" viewBox="0 0 22 9" width="22" height="9">
	<style>
		tspan { white-space:pre }
		.shp0 { fill: #a3bbc8 } 
	</style>
	<g id="Related products">
		<g id="Title">
			<g id="Group 2">
				<path id="Shape 1" class="shp0" d="M21.7 3.53L21.71 3.53L4.76 3.53L4.86 0.67C4.91 0.62 4.94 0.54 4.94 0.47C4.94 0.39 4.91 0.32 4.86 0.26L4.68 0.09C4.63 0.03 4.56 0 4.48 0C4.4 0 4.33 0.03 4.28 0.09L0.08 4.3C0.03 4.35 0 4.43 0 4.5C0 4.58 0.03 4.65 0.08 4.71L4.28 8.92C4.33 8.97 4.4 9 4.48 9C4.56 9 4.63 8.97 4.68 8.92L4.86 8.75C4.91 8.69 4.94 8.62 4.94 8.54C4.94 8.46 4.91 8.4 4.86 8.34L4.74 5.48L21.71 5.48C21.87 5.48 22 5.34 22 5.18L22 3.81C22 3.65 21.86 3.53 21.7 3.53Z" />
			</g>
		</g>
	</g>
</svg>