<svg xmlns="http://www.w3.org/2000/svg" viewBox="0 0 14 14" width="14" height="14">
	<style>
		tspan { white-space:pre }
		.shp0 { fill: #436372 } 
	</style>
	<g id="Content">
		<g id="Blog ">
			<g id="Comment">
				<g id="Name">
					<path id="Shape 1" class="shp0" d="M13.38 13.17L0.55 13.17C0.31 13.17 0.12 12.98 0.12 12.75C0.12 9.13 3.19 6.17 6.97 6.17C10.74 6.17 13.81 9.13 13.81 12.75C13.81 12.98 13.62 13.17 13.38 13.17ZM0.99 12.34L12.94 12.34C12.72 9.36 10.12 7 6.97 7C3.81 7 1.21 9.36 0.99 12.34ZM6.97 7C4.96 7 3.33 5.43 3.33 3.5C3.33 1.57 4.96 0 6.97 0C8.97 0 10.6 1.57 10.6 3.5C10.6 5.43 8.97 7 6.97 7ZM6.97 0.83C5.43 0.83 4.19 2.03 4.19 3.5C4.19 4.97 5.43 6.17 6.97 6.17C8.5 6.17 9.75 4.97 9.75 3.5C9.75 2.03 8.5 0.83 6.97 0.83Z" />
				</g>
			</g>
		</g>
	</g>
</svg>