<svg xmlns="http://www.w3.org/2000/svg" viewBox="0 0 18 15" width="18" height="15">
	<style>
		tspan { white-space:pre }
		.shp0 { fill: #436372 } 
	</style>
	<g id="Content">
		<g id="Blog ">
			<g id="Comment">
				<g id="Email">
					<path id="Shape 3" class="shp0" d="M3 15C2.94 15 2.89 14.99 2.84 14.97C2.68 14.9 2.57 14.76 2.57 14.59L2.57 12.52L1.29 12.52C0.58 12.52 0 11.97 0 11.29L0 1.42C0 0.74 0.58 0.19 1.29 0.19L16.71 0.19C17.42 0.19 18 0.74 18 1.42L18 11.29C18 11.97 17.42 12.52 16.71 12.52L5.77 12.52L3.3 14.88C3.22 14.96 3.11 15 3 15ZM1.29 1.01C1.05 1.01 0.86 1.2 0.86 1.42L0.86 11.29C0.86 11.51 1.05 11.7 1.29 11.7L3 11.7C3.24 11.7 3.43 11.88 3.43 12.11L3.43 13.6L5.29 11.82C5.37 11.74 5.47 11.7 5.59 11.7L16.71 11.7C16.95 11.7 17.14 11.51 17.14 11.29L17.14 1.42C17.14 1.2 16.95 1.01 16.71 1.01L1.29 1.01ZM6.06 6.35C6.06 6.7 5.77 6.97 5.41 6.97C5.06 6.97 4.77 6.7 4.77 6.35C4.77 6.01 5.06 5.74 5.41 5.74C5.77 5.74 6.06 6.01 6.06 6.35ZM9.64 6.35C9.64 6.7 9.35 6.97 9 6.97C8.64 6.97 8.36 6.7 8.36 6.35C8.36 6.01 8.64 5.74 9 5.74C9.35 5.74 9.64 6.01 9.64 6.35ZM12.99 6.35C12.99 6.7 12.7 6.97 12.34 6.97C11.99 6.97 11.7 6.7 11.7 6.35C11.7 6.01 11.99 5.74 12.34 5.74C12.7 5.74 12.99 6.01 12.99 6.35Z" />
				</g>
			</g>
		</g>
	</g>
</svg>