<svg xmlns="http://www.w3.org/2000/svg" viewBox="0 0 19 17" width="19" height="17">
	<style>
		tspan { white-space:pre }
		.shp0 { fill: #243f4d } 
	</style>
	<g id="Banner">
		<g id="Header">
			<g id="Group 2">
				<path id="Shape 16" fill-rule="evenodd" class="shp0" d="M5.53 16.98C4.99 16.98 4.46 16.77 4.06 16.37C3.47 15.78 3.29 14.89 3.61 14.11C3.93 13.33 4.69 12.83 5.53 12.83C5.53 12.83 5.53 12.83 5.53 12.83C6.08 12.83 6.6 13.04 6.99 13.43C7.39 13.83 7.6 14.35 7.6 14.9C7.6 15.74 7.1 16.49 6.33 16.82C6.07 16.93 5.8 16.98 5.53 16.98ZM5.53 14.01C5.53 14.01 5.53 14.01 5.53 14.01C5.17 14.01 4.85 14.23 4.71 14.56C4.57 14.9 4.65 15.28 4.9 15.53C5.16 15.79 5.54 15.86 5.87 15.72C6.2 15.58 6.42 15.26 6.42 14.9C6.42 14.66 6.32 14.44 6.16 14.27C5.99 14.11 5.77 14.01 5.53 14.01ZM13.92 16.98C13.38 16.98 12.85 16.77 12.46 16.37C11.86 15.78 11.68 14.89 12 14.11C12.33 13.33 13.08 12.83 13.92 12.83C14.46 12.79 15 13.05 15.39 13.43C15.78 13.83 15.99 14.35 15.99 14.9C16 15.74 15.5 16.49 14.72 16.82C14.46 16.93 14.19 16.98 13.92 16.98ZM13.92 14.01C13.92 14.01 13.92 14.01 13.92 14.01C13.59 14.05 13.24 14.23 13.1 14.56C12.96 14.9 13.04 15.28 13.29 15.53C13.55 15.79 13.93 15.86 14.26 15.72C14.6 15.58 14.81 15.26 14.81 14.9C14.81 14.66 14.72 14.44 14.55 14.27C14.38 14.11 14.16 14.01 13.92 14.01ZM2.65 14.18C2.56 14.18 2.48 14.16 2.4 14.12C2.1 13.98 1.97 13.63 2.11 13.34C2.69 12.1 3.74 11.36 5.16 11.18L4.11 5.79C4.05 5.47 4.25 5.16 4.58 5.1C4.9 5.03 5.21 5.25 5.27 5.57L6.36 11.14L15.79 11.14L17.59 4.37C17.58 4.37 4.3 4.37 4.29 4.37C2.16 4.37 0.32 2.79 0.01 0.68C-0.04 0.36 0.18 0.05 0.5 0.01C0.82 -0.05 1.13 0.18 1.18 0.51C1.41 2.04 2.74 3.19 4.29 3.19C4.3 3.19 4.31 3.19 4.31 3.19L18.36 3.19C18.55 3.19 18.72 3.27 18.83 3.42C18.95 3.57 18.98 3.76 18.94 3.93L16.81 11.89C16.74 12.15 16.51 12.33 16.24 12.33L5.88 12.33C5.88 12.33 5.87 12.33 5.86 12.33C4.53 12.33 3.66 12.82 3.18 13.84C3.08 14.05 2.87 14.18 2.65 14.18Z" />
			</g>
		</g>
	</g>
</svg>