<svg xmlns="http://www.w3.org/2000/svg" viewBox="0 0 37 34" width="37" height="34">
	
			<path fill-="#fff" d="M0.98 33.92C0.72 33.92 0.48 33.82 0.31 33.65C0.13 33.47 0.03 33.23 0.03 32.99L0 12.79C0 12.78 0 12.78 0 12.77C0.01 12.48 0.15 12.19 0.41 12.02L5.73 8.4L5.73 4.56C5.73 4.05 6.15 3.63 6.68 3.63L12.75 3.63L17.96 0.08C18.29 -0.14 18.72 -0.14 19.04 0.08L24.23 3.63L30.32 3.63C30.84 3.63 31.27 4.05 31.27 4.56L31.27 8.44L36.56 12.06C36.75 12.19 36.88 12.38 36.94 12.58C36.96 12.63 36.97 12.71 36.97 12.77L37 32.94C37 33.45 36.58 33.87 36.05 33.87L0.98 33.92L0.98 33.92ZM3.75 32.05L33.23 32.01L18.51 20.79L3.75 32.05ZM1.92 31.09L13.36 22.36L1.9 14.56L1.92 31.09ZM23.64 22.34L35.1 31.08L35.08 14.52L23.64 22.34ZM7.63 16.19L14.93 21.16L17.93 18.87C18.28 18.61 18.75 18.62 19.08 18.86C19.09 18.86 19.09 18.87 19.09 18.87L22.07 21.14L29.37 16.15L29.37 5.49L7.63 5.49L7.63 16.19ZM2.61 12.78L5.73 14.9L5.73 10.66L2.61 12.78ZM31.27 14.85L34.3 12.78L31.27 10.71L31.27 14.85ZM16.08 3.63L20.91 3.63L18.5 1.98L16.08 3.63ZM12.08 15.93C11.56 15.93 11.14 15.51 11.14 15C11.14 14.49 11.56 14.07 12.08 14.07L24.91 14.07C25.44 14.07 25.86 14.49 25.86 15C25.86 15.51 25.44 15.93 24.91 15.93L12.08 15.93ZM12.08 11.09C11.56 11.09 11.14 10.67 11.14 10.15C11.14 9.64 11.56 9.22 12.08 9.22L24.91 9.22C25.44 9.22 25.86 9.64 25.86 10.15C25.86 10.67 25.44 11.09 24.91 11.09L12.08 11.09Z" />
</svg>