<svg xmlns="http://www.w3.org/2000/svg" viewBox="0 0 9 16" width="9" height="16">
	<style>
		tspan { white-space:pre }
		.shp0 { fill: #a1a1a1 } 
	</style>
	<g id="Content">
		<g id="Blog ">
			<g id="Social icon team 52">
				<g id="Social icon team 52">
					<path id="Path 1" class="shp0" d="M6.19 0.12C6.6 0.12 7.02 0.15 7.43 0.17C7.7 0.18 7.97 0.21 8.22 0.24L8.2 2.73L8 2.73C7.73 2.73 7.46 2.72 7.18 2.72C6.98 2.72 6.78 2.73 6.57 2.73C5.91 2.75 5.43 3 5.39 3.82C5.37 4.42 5.36 5.72 5.36 5.79C5.39 5.79 6.04 5.8 6.7 5.8C7.02 5.8 7.34 5.8 7.57 5.79L8.1 5.79C7.97 6.75 7.84 7.66 7.71 8.59L5.36 8.59L5.3 15.56L2.41 15.56L2.47 8.57L0.1 8.57L0.12 5.8L2.5 5.8L2.5 5.59C2.51 5.03 2.5 4.47 2.52 3.91C2.53 3.56 2.55 3.2 2.61 2.85C2.77 2 3.16 1.28 3.88 0.77C4.5 0.33 5.21 0.14 5.96 0.13C6.04 0.13 6.11 0.12 6.19 0.12Z" />
				</g>
			</g>
		</g>
	</g>
</svg>