<svg xmlns="http://www.w3.org/2000/svg" viewBox="0 0 18 12" width="18" height="12">
	<style>
		tspan { white-space:pre }
		.shp0 { fill: #a1a1a1 } 
	</style>
	<g id="Content">
		<g id="Blog ">
			<g id="Social icon team 52">
				<g id="Social icon team 52">
					<path id="Union 1" class="shp0" d="M5.27 11.73C4.15 11.66 3.13 11.31 2.23 10.65C1.07 9.79 0.34 8.65 0.03 7.24C-0.08 6.73 -0.12 6.22 -0.08 5.7C0 4.49 0.43 3.39 1.21 2.45C2.02 1.45 3.05 0.81 4.28 0.49C4.59 0.41 4.9 0.36 5.22 0.35C5.4 0.34 5.58 0.33 5.77 0.33C6.73 0.34 7.63 0.58 8.46 1.07C9.02 1.39 9.34 1.71 9.47 1.81C8.9 2.37 8.36 2.92 7.8 3.47C7.38 3.11 6.93 2.78 6.13 2.66C5.97 2.64 5.8 2.62 5.65 2.62C4.05 2.62 2.72 3.78 2.36 5.29C2.27 5.63 2.25 5.97 2.28 6.32C2.4 7.72 3.34 8.87 4.61 9.29C4.93 9.39 5.27 9.44 5.61 9.44C5.69 9.44 5.76 9.43 5.84 9.43C6.44 9.39 7 9.23 7.51 8.9C8.36 8.32 8.64 7.4 8.64 7.18L5.59 7.18C5.59 7.1 5.6 5.68 5.6 4.98L5.61 4.89L10.97 4.89C11.26 6.56 11 8.32 9.96 9.7C9.24 10.65 8.28 11.24 7.14 11.54C6.63 11.67 6.12 11.74 5.6 11.74C5.49 11.74 5.38 11.73 5.27 11.73ZM15.86 8.51L14.41 8.51L14.35 8.51L14.35 8.45L14.37 6.52L12.44 6.52L12.38 6.52L12.38 6.46L12.39 5.02L12.39 4.96L12.45 4.96L14.38 4.96L14.39 3.03L14.4 2.97L14.45 2.97L15.9 2.97L15.95 2.97L15.95 3.03L15.94 4.96L17.87 4.96L17.93 4.96L17.93 5.02L17.92 6.46L17.92 6.52L17.86 6.52L15.93 6.52L15.91 8.45L15.91 8.51L15.86 8.51Z" />
				</g>
			</g>
		</g>
	</g>
</svg>