<svg xmlns="http://www.w3.org/2000/svg" viewBox="0 0 16 16" width="16" height="16">
	<style>
		tspan { white-space:pre }
		.shp0 { fill: #243f4d } 
	</style>
	<g id="Banner">
		<g id="Header">
			<path id="icon" class="shp0" d="M3.7 6.08C4.06 6.01 4.38 6.21 4.45 6.56C4.54 7.14 4.8 7.63 5.23 8.05C5.65 8.44 6.17 8.73 6.72 8.83C7.05 8.89 7.27 9.22 7.21 9.57C7.14 9.89 6.85 10.13 6.49 10.08C5.68 9.92 4.94 9.54 4.35 8.95C3.77 8.37 3.38 7.63 3.22 6.82C3.15 6.46 3.34 6.14 3.7 6.08ZM6.98 0C10.45 0 13.26 2.8 13.26 6.25C13.26 7.18 13.06 8.06 12.69 8.86L15.03 10.89C16.73 12.64 15.77 14.16 15.32 14.61C14.9 15.06 13.33 16.02 11.59 14.32L9.53 11.97C8.75 12.31 7.89 12.51 6.98 12.51C3.51 12.51 0.7 9.71 0.7 6.25C0.7 2.79 3.51 0 6.98 0ZM12.53 13.51C12.82 13.84 13.65 14.38 14.41 13.74C14.62 13.56 15.04 12.67 14.18 11.87L12.02 9.99C11.63 10.5 11.18 10.95 10.65 11.33L12.53 13.51ZM6.98 11.2C9.72 11.2 11.95 8.98 11.95 6.25C11.95 3.52 9.72 1.31 6.98 1.31C4.24 1.31 2.01 3.52 2.01 6.25C2.01 8.98 4.24 11.2 6.98 11.2Z" />
		</g>
	</g>
</svg>