<svg xmlns="http://www.w3.org/2000/svg" viewBox="0 0 18 17" width="18" height="17">
	<style>
		tspan { white-space:pre }
		.shp0 { fill: #243f4d } 
	</style>
	<g id="Banner">
		<g id="Header">
			<g id="Group 2">
				<path id="Shape 55" class="shp0" d="M8.91 16.24C8.82 16.24 8.72 16.23 8.63 16.19C8.28 16.04 -0.02 12.44 -0.02 5.43C0.07 2.78 2.19 0.72 4.8 0.72C6.54 0.72 8.07 1.64 8.91 3.03C9.76 1.64 11.28 0.72 13.03 0.72C15.63 0.72 17.75 2.78 17.84 5.4C17.84 12.44 9.55 16.04 9.19 16.19C9.1 16.23 9.01 16.24 8.91 16.24ZM4.8 2.11C2.95 2.11 1.46 3.58 1.39 5.45C1.39 10.86 7.52 14.11 8.91 14.79C10.31 14.11 16.43 10.86 16.43 5.43C16.37 3.58 14.87 2.11 13.03 2.11C11.18 2.11 9.68 3.58 9.62 5.45C9.6 5.83 9.29 6.12 8.91 6.12L8.91 6.12C8.53 6.12 8.22 5.83 8.21 5.45C8.14 3.58 6.65 2.11 4.8 2.11Z" />
			</g>
		</g>
	</g>
</svg>