<svg xmlns="http://www.w3.org/2000/svg" viewBox="0 0 15 14" width="15" height="14">
	<style>
		tspan { white-space:pre }
		.shp0 { fill: #a1a1a1 } 
	</style>
	<g id="Content">
		<g id="Blog ">
			<g id="Social icon team 52">
				<g id="Social icon team 52">
					<path id="Union 2" fill-rule="evenodd" class="shp0" d="M3.34 13.46C1.79 13.06 0.87 12.05 0.62 10.48C0.44 9.33 0.42 3.98 0.75 2.81C1.18 1.3 2.2 0.41 3.73 0.16C4.42 0.05 5.78 0.01 7.15 0.01C8.43 0.01 9.71 0.04 10.48 0.08C11.42 0.13 12.28 0.43 12.98 1.1C13.64 1.74 13.98 2.53 14.07 3.43C14.17 4.51 14.24 9.59 13.92 10.78C13.5 12.34 12.48 13.26 10.9 13.51C10.31 13.61 8.72 13.66 7.14 13.66C5.51 13.66 3.89 13.6 3.34 13.46ZM4.07 1.34C2.88 1.48 2.08 2.22 1.89 3.4C1.69 4.66 1.69 9.35 1.84 10.3C1.99 11.28 2.55 11.95 3.53 12.23C4.06 12.38 5.64 12.43 7.2 12.43C8.63 12.43 10.04 12.38 10.57 12.33C11.77 12.19 12.56 11.45 12.75 10.26C12.95 9.06 12.95 4.67 12.84 3.55C12.72 2.35 11.98 1.56 10.79 1.37C10.21 1.28 8.79 1.24 7.38 1.24C6.02 1.24 4.66 1.28 4.07 1.34ZM3.82 6.84C3.83 4.9 5.41 3.33 7.35 3.34C9.28 3.34 10.84 4.9 10.82 6.84C10.81 8.77 9.23 10.34 7.29 10.34C5.36 10.34 3.8 8.77 3.82 6.84ZM5.05 6.81C5.03 8.06 6.03 9.09 7.28 9.1L7.3 9.1C8.54 9.1 9.56 8.1 9.58 6.86C9.6 5.6 8.61 4.58 7.36 4.57L7.34 4.57C6.1 4.57 5.07 5.57 5.05 6.81ZM10.17 3.2C10.17 2.75 10.54 2.38 10.99 2.38L11 2.38C11.45 2.38 11.81 2.75 11.81 3.2C11.81 3.65 11.44 4.02 10.98 4.02C10.53 4.02 10.17 3.65 10.17 3.2Z" />
				</g>
			</g>
		</g>
	</g>
</svg>