<svg xmlns="http://www.w3.org/2000/svg" viewBox="0 0 31 44" width="31" height="44">
	<style>
		tspan { white-space:pre }
		.shp0 { fill: #a3bbc8 } 
	</style>
			<path d="M14.6 43.81L8.01 40.89L2.34 43.4C1.7 43.69 0.97 43.55 0.47 43.05C-0.02 42.55 -0.14 41.82 0.16 41.18L5.16 30.67C5.26 30.45 5.44 30.27 5.66 30.16C6.2 29.89 6.87 30.1 7.14 30.65C7.31 30.98 7.29 31.35 7.13 31.66L2.78 40.8L7.1 38.89C7.68 38.63 8.34 38.63 8.91 38.89L15.49 41.8C15.49 41.8 15.5 41.8 15.5 41.8C15.5 41.8 15.51 41.8 15.51 41.8L22.09 38.89C22.66 38.63 23.32 38.63 23.89 38.89L28.21 40.8L23.87 31.66C23.65 31.25 23.71 30.73 24.05 30.38C24.43 29.98 25.05 29.93 25.49 30.24C25.64 30.35 25.76 30.5 25.84 30.67L30.84 41.19C31.14 41.82 31.02 42.55 30.52 43.05C30.04 43.55 29.3 43.69 28.66 43.4L23 40.89L16.4 43.81C16.12 43.94 15.81 44 15.5 44C15.19 44 14.88 43.94 14.6 43.81ZM12.65 36.21L3.1 20.28C3.09 20.26 3.08 20.24 3.07 20.22C2.06 18.25 1.53 16.04 1.54 13.81C1.56 10.17 3 6.73 5.6 4.12C8.2 1.51 11.64 0.05 15.3 0C19.07 -0.05 22.62 1.37 25.3 4C27.98 6.63 29.46 10.15 29.46 13.89C29.46 16.12 28.95 18.25 27.93 20.22C27.92 20.24 27.91 20.26 27.9 20.28L18.35 36.21C17.74 37.22 16.68 37.82 15.5 37.82C14.32 37.82 13.25 37.22 12.65 36.21ZM15.33 2.2C8.98 2.28 3.78 7.5 3.75 13.82C3.74 15.71 4.16 17.52 5.02 19.19L14.55 35.08C14.84 35.57 15.31 35.62 15.5 35.62C15.69 35.62 16.16 35.57 16.45 35.08L25.98 19.19C26.83 17.54 27.25 15.76 27.25 13.89C27.25 10.74 26.01 7.78 23.75 5.56C21.54 3.39 18.61 2.2 15.51 2.2C15.45 2.2 15.39 2.2 15.33 2.2ZM10.45 13.89C10.45 11.12 12.71 8.87 15.5 8.87C18.28 8.87 20.55 11.12 20.55 13.89C20.55 16.67 18.28 18.92 15.5 18.92C12.71 18.92 10.45 16.67 10.45 13.89ZM12.66 13.89C12.66 15.46 13.93 16.73 15.5 16.73C17.07 16.73 18.34 15.46 18.34 13.89C18.34 12.33 17.07 11.06 15.5 11.06C13.93 11.06 12.66 12.33 12.66 13.89Z" />
</svg>