<svg xmlns="http://www.w3.org/2000/svg" viewBox="0 0 22 20" width="22" height="20">
	<style>
		tspan { white-space:pre }
		.shp0 { fill: #ffffff } 
	</style>
	<g id="Products">
		<g id="Items">
			<g id="Item 2">
				<path id="Forma 1" class="shp0" d="M0.81 1.63L3.15 1.63L6.47 13.67C6.57 14.02 6.89 14.26 7.26 14.26L17.47 14.26C17.8 14.26 18.08 14.07 18.22 13.78L21.93 5.22C22.04 4.96 22.02 4.67 21.87 4.44C21.72 4.21 21.46 4.07 21.19 4.07L9.9 4.07C9.45 4.07 9.09 4.44 9.09 4.89C9.09 5.34 9.45 5.71 9.9 5.71L19.94 5.71L16.93 12.63L7.87 12.63L4.54 0.6C4.45 0.24 4.12 0 3.76 0L0.81 0C0.37 0 0 0.37 0 0.81C0 1.26 0.37 1.63 0.81 1.63ZM6.48 20C7.5 20 8.33 19.17 8.33 18.15C8.33 17.13 7.5 16.3 6.48 16.3C5.47 16.3 4.64 17.13 4.64 18.15C4.64 19.17 5.47 20 6.48 20ZM18.01 20C18.05 20 18.11 20 18.15 20C18.64 19.96 19.09 19.74 19.41 19.36C19.74 18.99 19.89 18.52 19.86 18.02C19.79 17.01 18.91 16.23 17.89 16.3C16.87 16.37 16.11 17.27 16.18 18.27C16.25 19.24 17.05 20 18.01 20Z" />
			</g>
		</g>
	</g>
</svg>