<svg xmlns="http://www.w3.org/2000/svg" viewBox="0 0 37 45" width="37" height="45">
			<path fill="#a3bbc8" d="M13.44 39.92C13.44 37.17 15.71 34.93 18.5 34.93C21.29 34.93 23.56 37.17 23.56 39.92C23.56 42.68 21.29 44.92 18.5 44.92C15.71 44.92 13.44 42.68 13.44 39.92ZM15.41 39.92C15.41 41.6 16.8 42.97 18.5 42.97C20.2 42.97 21.58 41.6 21.58 39.92C21.58 38.24 20.2 36.88 18.5 36.88C16.8 36.88 15.41 38.24 15.41 39.92ZM26.88 28.59C26.88 25.83 29.15 23.59 31.94 23.59C34.73 23.59 37 25.83 37 28.59C37 31.34 34.73 33.58 31.94 33.58C29.15 33.58 26.88 31.34 26.88 28.59ZM28.86 28.59C28.86 30.27 30.24 31.63 31.94 31.63C33.64 31.63 35.03 30.27 35.03 28.59C35.03 26.91 33.64 25.54 31.94 25.54C30.24 25.54 28.86 26.91 28.86 28.59ZM13.44 28.59C13.44 25.83 15.71 23.59 18.5 23.59C21.29 23.59 23.56 25.83 23.56 28.59C23.56 31.34 21.29 33.58 18.5 33.58C15.71 33.58 13.44 31.34 13.44 28.59ZM15.41 28.59C15.41 30.27 16.8 31.63 18.5 31.63C20.2 31.63 21.58 30.27 21.58 28.59C21.58 26.91 20.2 25.54 18.5 25.54C16.8 25.54 15.41 26.91 15.41 28.59ZM0 28.59C0 25.83 2.27 23.59 5.06 23.59C7.85 23.59 10.12 25.83 10.12 28.59C10.12 31.34 7.85 33.58 5.06 33.58C2.27 33.58 0 31.34 0 28.59ZM1.97 28.59C1.97 30.27 3.36 31.63 5.06 31.63C6.76 31.63 8.14 30.27 8.14 28.59C8.14 26.91 6.76 25.54 5.06 25.54C3.36 25.54 1.97 26.91 1.97 28.59ZM26.88 17.25C26.88 14.5 29.15 12.25 31.94 12.25C34.73 12.25 37 14.5 37 17.25C37 20 34.73 22.24 31.94 22.24C29.15 22.24 26.88 20 26.88 17.25ZM28.86 17.25C28.86 18.93 30.24 20.29 31.94 20.29C33.64 20.29 35.03 18.93 35.03 17.25C35.03 15.57 33.64 14.2 31.94 14.2C30.24 14.2 28.86 15.57 28.86 17.25ZM13.44 17.25C13.44 14.5 15.71 12.25 18.5 12.25C21.29 12.25 23.56 14.5 23.56 17.25C23.56 20 21.29 22.24 18.5 22.24C15.71 22.24 13.44 20 13.44 17.25ZM15.41 17.25C15.41 18.93 16.8 20.29 18.5 20.29C20.2 20.29 21.58 18.93 21.58 17.25C21.58 15.57 20.2 14.2 18.5 14.2C16.8 14.2 15.41 15.57 15.41 17.25ZM0 17.25C0 14.5 2.27 12.25 5.06 12.25C7.85 12.25 10.12 14.5 10.12 17.25C10.12 20 7.85 22.24 5.06 22.24C2.27 22.24 0 20 0 17.25ZM1.97 17.25C1.97 18.93 3.36 20.29 5.06 20.29C6.76 20.29 8.14 18.93 8.14 17.25C8.14 15.57 6.76 14.2 5.06 14.2C3.36 14.2 1.97 15.57 1.97 17.25ZM26.88 5.91C26.88 3.16 29.15 0.92 31.94 0.92C34.73 0.92 37 3.16 37 5.91C37 8.67 34.73 10.91 31.94 10.91C29.15 10.91 26.88 8.67 26.88 5.91ZM28.86 5.91C28.86 7.59 30.24 8.96 31.94 8.96C33.64 8.96 35.03 7.59 35.03 5.91C35.03 4.23 33.64 2.87 31.94 2.87C30.24 2.87 28.86 4.23 28.86 5.91ZM13.44 5.91C13.44 3.16 15.71 0.92 18.5 0.92C21.29 0.92 23.56 3.16 23.56 5.91C23.56 8.67 21.29 10.91 18.5 10.91C15.71 10.91 13.44 8.67 13.44 5.91ZM15.41 5.91C15.41 7.59 16.8 8.96 18.5 8.96C20.2 8.96 21.58 7.59 21.58 5.91C21.58 4.23 20.2 2.87 18.5 2.87C16.8 2.87 15.41 4.23 15.41 5.91ZM0 5.91C0 3.16 2.27 0.92 5.06 0.92C7.85 0.92 10.12 3.16 10.12 5.91C10.12 8.67 7.85 10.91 5.06 10.91C2.27 10.91 0 8.67 0 5.91ZM1.97 5.91C1.97 7.59 3.36 8.96 5.06 8.96C6.76 8.96 8.14 7.59 8.14 5.91C8.14 4.23 6.76 2.87 5.06 2.87C3.36 2.87 1.97 4.23 1.97 5.91Z" />\
</svg>