<svg xmlns="http://www.w3.org/2000/svg" viewBox="0 0 22 18" width="22" height="18">
	<style>
		tspan { white-space:pre }
		.shp0 { fill: #a3bbc8 } 
	</style>
	<g id="Products">
		<g id="Items">
			<g id="Item 2">
				<path id="Forma 1" class="shp0" d="M21.99 5.82C21.91 4.27 21.25 2.81 20.14 1.72C19.02 0.61 17.55 0 16 0C13.69 0 12.05 1.78 11.18 2.74C11.13 2.8 11.07 2.86 11.02 2.91C10.99 2.88 10.96 2.85 10.94 2.82C10.13 1.9 8.46 0 6 0C4.45 0 2.98 0.61 1.86 1.72C0.75 2.81 0.09 4.27 0.01 5.82C-0.07 7.36 0.32 8.7 1.28 10.16C2.14 11.47 4.38 13.53 6.04 14.91C7.75 16.32 9.99 18 11.01 18C12.04 18 14.28 16.32 15.97 14.91C17.62 13.54 19.85 11.48 20.72 10.16C21.37 9.17 22.1 7.79 21.99 5.82ZM19.61 9.43C18.98 10.39 17.2 12.17 15.18 13.85C12.78 15.85 11.35 16.64 11.01 16.67C10.67 16.64 9.24 15.84 6.82 13.83C4.79 12.15 3.01 10.38 2.39 9.43C1.59 8.22 1.27 7.13 1.33 5.89C1.47 3.37 3.56 1.32 6 1.32C7.86 1.32 9.21 2.86 9.94 3.69C10.37 4.18 10.6 4.45 11 4.45C11.41 4.45 11.67 4.16 12.15 3.64C12.94 2.77 14.27 1.32 16 1.32C18.44 1.32 20.53 3.37 20.67 5.89C20.74 7.15 20.42 8.2 19.61 9.43Z" />
			</g>
		</g>
	</g>
</svg>