<svg xmlns="http://www.w3.org/2000/svg" viewBox="0 0 20 20" width="20" height="20">
	<style>
		tspan { white-space:pre }
		.shp0 { fill: #a3bbc8 } 
	</style>
	<g id="Products">
		<g id="Items">
			<g id="Item 2">
				<path id="Forma 1" class="shp0" d="M19.45 16.8L14.86 12.21C14.18 13.27 13.27 14.18 12.21 14.86L16.8 19.45C17.53 20.18 18.72 20.18 19.45 19.45C20.18 18.72 20.18 17.53 19.45 16.8ZM15 7.5C15 3.36 11.64 0 7.5 0C3.36 0 0 3.36 0 7.5C0 11.64 3.36 15 7.5 15C11.64 15 15 11.64 15 7.5ZM7.5 13.12C4.4 13.12 1.87 10.6 1.87 7.5C1.87 4.4 4.4 1.87 7.5 1.87C10.6 1.87 13.12 4.4 13.12 7.5C13.12 10.6 10.6 13.12 7.5 13.12ZM3.12 7.5L4.37 7.5C4.37 5.78 5.78 4.37 7.5 4.37L7.5 3.12C5.09 3.12 3.12 5.09 3.12 7.5Z" />
			</g>
		</g>
	</g>
</svg>