<svg xmlns="http://www.w3.org/2000/svg" viewBox="0 0 18 17" width="18" height="17">
	<style>
		tspan { white-space:pre }
		.shp0 { fill: #094074 } 
	</style>
	<g id="sidebar">
		<g id="Search">
			<path id="Shape 76" class="shp0" d="M17.25 16.92C17.1 16.92 16.95 16.86 16.83 16.75L11.53 11.45C10.4 12.39 8.94 12.96 7.35 12.96C3.75 12.96 0.82 10.03 0.82 6.43C0.82 2.83 3.75 -0.1 7.35 -0.1C10.96 -0.1 13.88 2.83 13.88 6.43C13.88 8.02 13.32 9.48 12.37 10.61L17.67 15.91C17.78 16.02 17.84 16.17 17.84 16.33C17.84 16.48 17.78 16.63 17.67 16.75C17.55 16.86 17.4 16.92 17.25 16.92ZM7.35 1.09C4.41 1.09 2.01 3.48 2.01 6.43C2.01 9.38 4.41 11.77 7.35 11.77C10.3 11.77 12.7 9.38 12.7 6.43C12.7 3.48 10.3 1.09 7.35 1.09Z" />
		</g>
	</g>
</svg>