<svg xmlns="http://www.w3.org/2000/svg" viewBox="0 0 15 12" width="15" height="12">
	<style>
		tspan { white-space:pre }
		.shp0 { fill: #a1a1a1 } 
	</style>
	<g id="Content">
		<g id="Blog ">
			<g id="Social icon team 52">
				<g id="Social icon team 52">
					<path id="Path 2" class="shp0" d="M14.69 1.28C14.58 1.44 14.48 1.58 14.36 1.73C14.05 2.11 13.69 2.45 13.29 2.74L13.24 2.83C13.25 3.27 13.23 3.7 13.17 4.14C13.05 5.05 12.79 5.92 12.4 6.75C11.99 7.6 11.46 8.37 10.8 9.05C9.67 10.21 8.32 10.96 6.75 11.3C6.21 11.42 5.67 11.48 5.11 11.5C5.02 11.5 4.94 11.5 4.85 11.5C3.26 11.5 1.79 11.08 0.43 10.23L0.36 10.19C0.59 10.22 0.82 10.23 1.05 10.23C1.82 10.23 2.57 10.08 3.3 9.79C3.8 9.58 4.26 9.32 4.7 8.97C3.18 8.92 2.23 7.83 1.99 6.94C2.17 6.97 2.35 6.99 2.53 6.99C2.77 6.99 3.01 6.96 3.24 6.9L3.29 6.88C2.46 6.69 1.83 6.25 1.39 5.54C1.1 5.07 0.97 4.55 0.97 3.98C1.39 4.2 1.82 4.32 2.28 4.33C1.66 3.89 1.25 3.3 1.08 2.55C0.92 1.81 1.03 1.1 1.42 0.43C2.99 2.3 4.99 3.33 7.44 3.5C7.42 3.38 7.41 3.28 7.39 3.17C7.31 2.48 7.46 1.84 7.84 1.26C8.31 0.53 8.98 0.07 9.83 -0.07C10.02 -0.1 10.2 -0.11 10.37 -0.11C11.14 -0.11 11.81 0.18 12.4 0.75C12.43 0.78 12.46 0.8 12.5 0.8C12.52 0.8 12.53 0.8 12.55 0.79C13.15 0.67 13.73 0.45 14.26 0.14L14.3 0.12C14.08 0.8 13.66 1.33 13.05 1.72C13.62 1.66 14.16 1.5 14.69 1.28Z" />
				</g>
			</g>
		</g>
	</g>
</svg>