<?xml version="1.0" encoding="UTF-8"?>
<svg xmlns="http://www.w3.org/2000/svg" xmlns:xlink="http://www.w3.org/1999/xlink" width="16pt" height="16pt" viewBox="0 0 16 16" version="1.1">
<g id="surface1">
<path fill-rule="evenodd" fill="fff" d="M 13.65625 10.34375 C 12.785156 9.472656 11.753906 8.824219 10.617188 8.433594 C 11.832031 7.601562 12.625 6.199219 12.625 4.625 C 12.625 2.070312 10.550781 0 8 0 C 5.449219 0 3.375 2.070312 3.375 4.625 C 3.375 6.199219 4.167969 7.601562 5.382812 8.433594 C 4.246094 8.824219 3.214844 9.472656 2.34375 10.34375 C 0.832031 11.855469 0 13.863281 0 16 L 1.246094 16 C 1.246094 12.28125 4.28125 9.246094 8 9.246094 C 11.71875 9.246094 14.753906 12.28125 14.753906 16 L 16 16 C 16 13.863281 15.167969 11.855469 13.65625 10.34375 Z M 4.625 4.625 C 4.625 2.761719 6.136719 1.246094 8 1.246094 C 9.863281 1.246094 11.375 2.761719 11.375 4.625 C 11.375 6.488281 9.863281 8 8 8 C 6.136719 8 4.625 6.488281 4.625 4.625 Z M 4.625 4.625 "/>
</g>
</svg>
