<svg xmlns="http://www.w3.org/2000/svg" viewBox="0 0 21 21" width="21" height="21">
	<style>
		tspan { white-space:pre }
		.shp0 { fill: #ffffff } 
	</style>
	<g id="Banner">
		<g id="Header">
			<path id="Ellipse 32" class="shp0" d="M2.15 4.88C0.96 4.88 0 3.92 0 2.74C0 1.55 0.96 0.59 2.15 0.59C3.33 0.59 4.29 1.55 4.29 2.74C4.29 3.92 3.33 4.88 2.15 4.88ZM2.15 12.75C0.96 12.75 0 11.79 0 10.6C0 9.42 0.96 8.46 2.15 8.46C3.33 8.46 4.29 9.42 4.29 10.6C4.29 11.79 3.33 12.75 2.15 12.75ZM2.15 20.62C0.96 20.62 0 19.66 0 18.47C0 17.29 0.96 16.33 2.15 16.33C3.33 16.33 4.29 17.29 4.29 18.47C4.29 19.66 3.33 20.62 2.15 20.62ZM10.01 4.88C8.83 4.88 7.87 3.92 7.87 2.74C7.87 1.55 8.83 0.59 10.01 0.59C11.2 0.59 12.16 1.55 12.16 2.74C12.16 3.92 11.2 4.88 10.01 4.88ZM10.01 12.75C8.83 12.75 7.87 11.79 7.87 10.6C7.87 9.42 8.83 8.46 10.01 8.46C11.2 8.46 12.16 9.42 12.16 10.6C12.16 11.79 11.2 12.75 10.01 12.75ZM10.01 20.62C8.83 20.62 7.87 19.66 7.87 18.47C7.87 17.29 8.83 16.33 10.01 16.33C11.2 16.33 12.16 17.29 12.16 18.47C12.16 19.66 11.2 20.62 10.01 20.62ZM17.88 4.88C16.7 4.88 15.74 3.92 15.74 2.74C15.74 1.55 16.7 0.59 17.88 0.59C19.07 0.59 20.03 1.55 20.03 2.74C20.03 3.92 19.07 4.88 17.88 4.88ZM17.88 12.75C16.7 12.75 15.74 11.79 15.74 10.6C15.74 9.42 16.7 8.46 17.88 8.46C19.07 8.46 20.03 9.42 20.03 10.6C20.03 11.79 19.07 12.75 17.88 12.75ZM17.88 20.62C16.7 20.62 15.74 19.66 15.74 18.47C15.74 17.29 16.7 16.33 17.88 16.33C19.07 16.33 20.03 17.29 20.03 18.47C20.03 19.66 19.07 20.62 17.88 20.62Z" />
		</g>
	</g>
</svg>